HIERARCHY
ROOT Hips
{
	OFFSET 42.462830 92.095917 12.038650
	CHANNELS 6 Xposition Yposition Zposition Zrotation Yrotation Xrotation 
	JOINT LeftUpLeg
	{
		OFFSET 0.103457 1.857830 10.548504
		CHANNELS 3 Zrotation Yrotation Xrotation
		JOINT LeftLeg
		{
			OFFSET 43.500000 -0.000027 0.000000
			CHANNELS 3 Zrotation Yrotation Xrotation
			JOINT LeftFoot
			{
				OFFSET 42.372200 0.000015 0.000006
				CHANNELS 3 Zrotation Yrotation Xrotation
				JOINT LeftToe
				{
					OFFSET 17.299999 -0.000001 0.000003
					CHANNELS 3 Zrotation Yrotation Xrotation
					End Site
					{
						OFFSET 0.000000 0.000000 0.000000
					}
				}
			}
		}
	}
	JOINT RightUpLeg
	{
		OFFSET 0.103457 1.857826 -10.548506
		CHANNELS 3 Zrotation Yrotation Xrotation
		JOINT RightLeg
		{
			OFFSET 43.500042 -0.000027 0.000015
			CHANNELS 3 Zrotation Yrotation Xrotation
			JOINT RightFoot
			{
				OFFSET 42.372265 -0.000011 0.000010
				CHANNELS 3 Zrotation Yrotation Xrotation
				JOINT RightToe
				{
					OFFSET 17.299992 -0.000005 0.000008
					CHANNELS 3 Zrotation Yrotation Xrotation
					End Site
					{
						OFFSET 0.000000 0.000000 0.000000
					}
				}
			}
		}
	}
	JOINT Spine
	{
		OFFSET 6.901970 -2.603732 0.000001
		CHANNELS 3 Zrotation Yrotation Xrotation
		JOINT Spine1
		{
			OFFSET 12.588098 0.000000 0.000001
			CHANNELS 3 Zrotation Yrotation Xrotation
			JOINT Spine2
			{
				OFFSET 12.343201 0.000004 0.000001
				CHANNELS 3 Zrotation Yrotation Xrotation
				JOINT Neck
				{
					OFFSET 25.832903 -0.000008 0.000002
					CHANNELS 3 Zrotation Yrotation Xrotation
					JOINT Head
					{
						OFFSET 11.766609 0.000010 -0.000001
						CHANNELS 3 Zrotation Yrotation Xrotation
						End Site
						{
							OFFSET 0.000000 0.000000 0.000000
						}
					}
				}
				JOINT LeftShoulder
				{
					OFFSET 19.745903 -1.480370 6.000106
					CHANNELS 3 Zrotation Yrotation Xrotation
					JOINT LeftArm
					{
						OFFSET 11.284124 -0.000008 -0.000027
						CHANNELS 3 Zrotation Yrotation Xrotation
						JOINT LeftForeArm
						{
							OFFSET 33.000053 0.000001 0.000039
							CHANNELS 3 Zrotation Yrotation Xrotation
							JOINT LeftHand
							{
								OFFSET 25.200001 0.000016 0.000002
								CHANNELS 3 Zrotation Yrotation Xrotation
								End Site
								{
									OFFSET 0.000000 0.000000 0.000000
								}
							}
						}
					}
				}
				JOINT RightShoulder
				{
					OFFSET 19.746103 -1.480375 -6.000075
					CHANNELS 3 Zrotation Yrotation Xrotation
					JOINT RightArm
					{
						OFFSET 11.284133 -0.000017 0.000002
						CHANNELS 3 Zrotation Yrotation Xrotation
						JOINT RightForeArm
						{
							OFFSET 33.000092 0.000012 0.000002
							CHANNELS 3 Zrotation Yrotation Xrotation
							JOINT RightHand
							{
								OFFSET 25.199776 0.000141 0.000429
								CHANNELS 3 Zrotation Yrotation Xrotation
								End Site
								{
									OFFSET 0.000000 0.000000 0.000000
								}
							}
						}
					}
				}
			}
		}
	}
}
MOTION
Frames: 14
Frame Time: 0.033333
-10.201870 88.745590 315.991486 86.882076 0.623371 89.391788 154.606222 -2.105696 173.403354 -37.618800 2.475318 -0.997038 84.367070 1.000037 1.799664 21.454551 0.003090 0.000000 152.795157 -5.854405 177.672673 -63.208196 0.784481 6.735160 75.733786 -3.327684 5.398884 21.454563 -0.003101 -0.000020 14.355068 -3.085212 -0.488727 18.762741 -6.050123 -1.474486 18.442815 -6.058760 -1.437783 3.585917 -0.183252 0.681685 4.908132 2.863105 0.169090 148.104155 -78.372664 30.981765 -19.439260 52.063438 -1.237134 -58.798237 -16.832830 2.178628 10.438959 -15.057830 -6.597713 104.674725 75.690374 -75.020271 -8.399206 -66.726550 -7.823614 -70.255667 11.289140 -2.280625 10.408994 -0.192356 -21.731579 
-10.027750 89.026093 316.951202 87.014520 0.871175 89.167723 156.035398 -2.041701 173.381087 -36.731282 2.080555 -1.049037 84.669771 1.077268 1.961776 21.454550 0.003093 -0.000000 153.165886 -5.859498 177.203275 -58.336461 1.310027 6.026927 77.739820 -2.665653 6.403630 21.454551 -0.003105 -0.000017 14.290078 -3.070607 -0.487151 18.631935 -6.022477 -1.465576 18.312017 -6.031069 -1.429044 3.589705 -0.222858 0.720567 5.295725 2.748592 0.225289 147.637107 -78.835949 31.423866 -21.114854 51.526363 -2.503020 -62.403053 -16.144364 2.267658 8.538938 -16.424056 -2.697331 102.579401 75.650813 -77.119789 -6.830284 -66.341634 -9.969427 -71.756540 10.344973 -2.277349 10.188036 1.174672 -17.158735 
-9.830715 89.311234 317.952209 87.176730 1.099352 88.997679 157.522344 -1.997189 173.540518 -35.739378 1.413168 -1.148207 84.927160 1.211931 2.211015 21.454555 0.003093 0.000000 153.545849 -5.721105 176.526075 -53.781248 2.013988 5.398153 78.757709 -2.020498 7.505049 21.454557 -0.003114 -0.000015 14.189205 -3.028655 -0.502020 18.429071 -5.938415 -1.483163 18.109232 -5.947130 -1.447145 3.506166 -0.292268 0.752551 5.794228 2.612585 0.272116 147.217829 -79.171106 31.825789 -22.218281 50.935238 -3.650395 -65.054772 -15.152242 2.302762 6.619340 -16.534191 3.720861 101.684612 75.644297 -78.014871 -6.034503 -66.242740 -11.158827 -72.351852 9.972178 -2.281198 8.473003 3.258128 -17.706145 
-9.610589 89.565170 318.963104 87.386663 1.325749 88.890329 159.000124 -1.886992 173.462558 -34.745258 0.860197 -1.118772 85.170137 1.257617 2.476785 21.454553 0.003087 0.000001 153.846050 -5.437805 176.096265 -50.126068 2.491566 4.956143 78.895597 -1.477181 8.531281 21.454560 -0.003115 -0.000018 14.061091 -2.965181 -0.548563 18.172524 -5.807143 -1.559106 17.852759 -5.816316 -1.523877 3.450057 -0.493734 0.831507 6.211107 2.603430 0.311518 146.756791 -79.416836 32.275659 -22.961030 50.531696 -4.181146 -66.515531 -14.512984 2.316616 4.940905 -16.265527 8.197193 100.621527 75.555464 -79.085681 -5.598422 -66.741501 -11.499798 -72.328766 10.112176 -2.285022 7.394756 4.993840 -21.335436 
-9.389026 89.760567 319.942413 87.621621 1.581921 88.825374 160.416596 -1.780400 173.080873 -33.882099 0.412881 -0.914911 85.442941 1.187125 2.788155 21.454548 0.003081 -0.000002 154.290886 -5.163102 176.174703 -47.611889 2.451765 4.833808 78.862464 -1.478746 8.191822 21.454553 -0.003102 -0.000018 13.924536 -2.888028 -0.608410 17.899175 -5.646925 -1.659300 17.579534 -5.656703 -1.625061 3.479874 -0.644640 0.879292 6.321401 2.619190 0.322441 145.467129 -79.820398 33.552731 -23.386527 50.701420 -4.176981 -67.063107 -14.124813 2.320171 4.873933 -16.552834 8.982398 99.649489 75.508008 -80.061217 -5.426607 -67.534397 -11.211354 -71.731903 10.421948 -2.281646 6.850115 6.096662 -25.626515 
-9.191683 89.960503 320.877899 87.739073 1.758683 88.810484 161.707024 -1.757202 172.761644 -33.045777 0.019194 -0.707379 85.682264 1.105244 3.070404 21.454551 0.003097 0.000000 154.528058 -4.914913 176.283508 -46.484328 2.429424 4.742465 78.306295 -1.349959 8.305766 21.454560 -0.003108 -0.000017 13.779306 -2.778080 -0.661810 17.607036 -5.422861 -1.741550 17.287532 -5.433158 -1.708670 3.219540 -0.498128 0.862103 6.519293 2.361239 0.381098 144.431248 -80.199999 34.573274 -23.544179 51.194860 -3.700583 -67.217278 -14.145044 2.319291 6.275848 -16.455442 7.591228 98.689827 75.662821 -81.004261 -5.820032 -68.576732 -10.487074 -70.521184 10.988860 -2.270819 6.911820 6.785362 -27.609102 
-8.986988 90.098923 321.748108 87.929226 1.819551 88.745106 162.718137 -1.531408 172.718627 -32.374663 -0.266790 -0.727149 85.936443 1.138792 3.171714 21.454553 0.003102 0.000001 154.551089 -4.525697 176.253988 -46.501878 2.479371 4.379767 77.446525 -0.866614 8.923477 21.454557 -0.003115 -0.000016 13.624113 -2.690575 -0.703917 17.295091 -5.245448 -1.804880 16.975727 -5.256117 -1.773074 2.560732 -0.357610 0.831821 6.639226 2.212006 0.406115 144.400854 -80.195485 34.604412 -23.406068 51.534689 -3.193817 -66.709331 -14.382976 2.315396 7.081167 -16.016194 6.997574 98.189905 75.880581 -81.482231 -6.349959 -69.554801 -9.588730 -68.916745 11.629848 -2.249412 7.267056 6.867249 -27.030520 
-8.794147 90.270287 322.571198 87.929349 1.798383 88.716904 163.579738 -1.382212 172.815807 -31.748789 -0.369647 -0.809408 86.199146 1.174376 3.090098 21.454553 0.003093 -0.000000 154.833572 -4.402413 176.520693 -46.568722 2.387122 3.615753 75.706343 -0.878054 6.430677 21.454558 -0.003116 -0.000019 13.472314 -2.569682 -0.708748 16.987381 -5.007200 -1.789594 16.668122 -5.017792 -1.759245 1.713359 -0.221126 0.768377 6.546086 2.064845 0.394396 144.878011 -80.059974 34.131565 -23.234289 51.867883 -2.722465 -65.687753 -14.698987 2.296557 8.003987 -15.303015 8.344650 97.842467 76.116270 -81.806289 -6.772445 -70.314940 -9.117818 -66.937719 12.364990 -2.220155 7.845015 6.991256 -25.085994 
-8.654563 90.378563 323.372101 87.964838 1.725218 88.796072 164.226230 -1.224206 172.906089 -31.391157 -0.421204 -0.833244 86.571692 1.161027 2.983467 21.454553 0.003116 0.000003 155.311467 -4.141012 176.567958 -46.342584 2.554329 2.822737 74.818029 -1.152268 3.335945 21.454557 -0.003112 -0.000020 13.329227 -2.457645 -0.710557 16.697420 -4.786793 -1.770608 16.378266 -4.797250 -1.741603 0.963619 -0.040606 0.657729 6.430360 1.831399 0.363108 145.388704 -79.868339 33.628614 -22.997346 52.253799 -2.273466 -64.350299 -15.161055 2.275702 8.975849 -13.961721 10.895454 97.393491 76.360340 -82.230785 -6.753843 -70.988786 -9.296002 -64.726875 13.095022 -2.182570 8.342454 7.383140 -23.012031 
-8.528974 90.476799 324.170197 87.969094 1.662042 88.782111 164.864101 -1.119094 172.763297 -31.092305 -0.366898 -0.785519 86.966183 1.101397 2.906329 21.454551 0.003094 -0.000000 156.102676 -4.047891 176.708291 -45.850476 2.746320 3.171241 75.457205 -1.581840 2.792407 21.454562 -0.003108 -0.000017 13.205094 -2.375181 -0.690192 16.445572 -4.627926 -1.713024 16.126488 -4.638035 -1.684987 0.625353 0.173448 0.568743 6.199102 1.586069 0.365267 145.716212 -79.816245 33.300966 -22.612610 52.628400 -1.431358 -62.943642 -15.561821 2.248531 10.056222 -12.534819 13.063949 96.580200 76.344952 -83.043632 -6.101143 -71.482683 -10.098173 -62.576895 13.695083 -2.140032 8.752580 7.552886 -21.723780 
-8.423953 90.573410 324.978302 87.953275 1.633880 88.629819 165.567870 -1.048303 172.658221 -30.776279 -0.338726 -0.831826 87.357204 1.105151 2.817531 21.454550 0.003097 0.000001 156.905988 -3.916313 177.163714 -45.315566 2.941807 3.400748 75.877309 -2.014790 1.856956 21.454557 -0.003109 -0.000019 13.111459 -2.324395 -0.645936 16.254944 -4.534774 -1.613919 15.935893 -4.544309 -1.586442 0.514770 0.012178 0.530027 6.220485 1.796727 0.253722 146.150995 -79.722644 32.867673 -21.894434 52.842609 -0.014390 -61.573240 -15.968926 2.223839 10.804581 -11.312352 15.187942 95.979218 76.413370 -83.636390 -5.792876 -71.501262 -11.229170 -60.422374 14.191689 -2.091914 9.354163 7.287481 -21.161599 
-8.354894 90.645462 325.778412 87.967386 1.586506 88.363530 166.241531 -1.005286 172.538365 -30.503905 -0.367006 -0.926605 87.769734 1.137573 2.694726 21.454550 0.003086 0.000000 157.614333 -3.858787 177.781491 -44.930040 2.840538 3.432492 76.262293 -2.293471 0.912886 21.454560 -0.003119 -0.000018 13.028895 -2.305068 -0.594427 16.087127 -4.504893 -1.505362 15.768072 -4.513776 -1.478061 0.533154 -0.062240 0.523839 6.448614 1.720822 0.242508 146.342294 -79.653065 32.678917 -20.696593 52.895632 2.091018 -60.344687 -16.216382 2.194258 10.900238 -10.825029 16.847843 95.441464 76.506656 -84.163688 -5.566343 -71.259835 -12.647446 -58.308034 14.572897 -2.039264 9.869001 6.780747 -20.878784 
-8.324775 90.700844 326.553589 87.926104 1.481196 88.082584 166.783480 -1.075102 172.073229 -30.357513 -0.266509 -0.837864 88.219502 1.040351 2.564088 21.454550 0.003100 -0.000001 158.176048 -3.945494 178.087757 -44.686632 2.730812 3.468130 76.661347 -2.448731 0.418649 21.454560 -0.003109 -0.000015 12.946257 -2.288140 -0.550087 15.919549 -4.478598 -1.411470 15.600490 -4.486921 -1.384338 0.776235 -0.271634 0.562313 6.534172 1.781286 0.217779 146.782801 -79.578227 32.238278 -19.195852 52.736222 4.641719 -59.234604 -16.243725 2.154669 10.508739 -10.991686 17.093838 94.904734 76.544571 -84.695118 -4.856474 -70.995882 -14.134476 -56.625711 14.658865 -1.984052 10.377828 6.158583 -21.071161 
-8.344239 90.721527 327.319885 87.880622 1.347775 87.814028 167.216131 -1.223414 171.357398 -30.372284 -0.093222 -0.585321 88.734211 0.829407 2.435665 21.454550 0.003091 -0.000001 158.490250 -4.119206 177.768623 -44.795055 2.742212 3.453607 76.951930 -2.454764 0.354151 21.454557 -0.003116 -0.000017 12.877966 -2.282367 -0.524997 15.781751 -4.471614 -1.358048 15.462695 -4.479591 -1.330954 0.885314 -0.469592 0.639725 6.571814 1.838983 0.233935 147.798586 -79.502173 31.215191 -17.433918 52.457082 7.378499 -58.514053 -16.166928 2.122823 9.953157 -11.471043 16.493421 94.439817 76.672207 -85.146354 -3.902894 -70.718221 -15.849468 -55.515040 14.726110 -1.949041 10.878718 5.345887 -20.914838 
